<svg width="21" height="21" viewBox="0 0 21 21" fill="none" xmlns="http://www.w3.org/2000/svg">
<path d="M5.5 20.5H2.5C1.96957 20.5 1.46086 20.2893 1.08579 19.9142C0.710714 19.5391 0.5 19.0304 0.5 18.5V11.5C0.5 10.9696 0.710714 10.4609 1.08579 10.0858C1.46086 9.71071 1.96957 9.5 2.5 9.5H5.5M12.5 7.5V3.5C12.5 2.70435 12.1839 1.94129 11.6213 1.37868C11.0587 0.816071 10.2956 0.5 9.5 0.5L5.5 9.5V20.5H16.78C17.2623 20.5055 17.7304 20.3364 18.0979 20.024C18.4654 19.7116 18.7077 19.2769 18.78 18.8L20.16 9.8C20.2035 9.51336 20.1842 9.22068 20.1033 8.94225C20.0225 8.66382 19.8821 8.40629 19.6919 8.18751C19.5016 7.96873 19.2661 7.79393 19.0016 7.67522C18.7371 7.5565 18.4499 7.49672 18.16 7.5H12.5Z" stroke="black" stroke-linecap="round" stroke-linejoin="round"/>
</svg>
